# xmcd CD database file generated by OrangeCD 6.4
#
# Track frame offsets:
#	150
#	15582
#	27671
#	39312
#	50840
#	63531
#	75080
#	87872
#	100722
#	113180
#	127022
#	144069
#
# Disc length: 2122 seconds
#
# Revision: 0
# Processed by: cddbd v1.5.2PL0 Copyright (c) Steve Scherf et al.
# Submitted via: OrangeCD 6.4
#
DISCID=9208480c
DTITLE=Solomon Burke - Rock 'N Soul
DYEAR=1964
DGENRE=Rhythm and Blues
TTITLE0=Goodbye Baby (Baby Goodbye)
TTITLE1=Cry To Me
TTITLE2=Won't You Give Him (One More Chance)
TTITLE3=If You Need Me
TTITLE4=Hard Ain't It Hard
TTITLE5=Can't Nobody Love You
TTITLE6=Just Out Of Reach
TTITLE7=You're Good For Me
TTITLE8=You Can't Love Them All
TTITLE9=Someone To Love Me
TTITLE10=Beautiful Brown Eyes
TTITLE11=He'll Have To Go
EXTD=
EXTT0=
EXTT1=
EXTT2=
EXTT3=
EXTT4=
EXTT5=
EXTT6=
EXTT7=
EXTT8=
EXTT9=
EXTT10=
EXTT11=
PLAYORDER=
